<?xml version="1.0" encoding="UTF-8"?>
<svg width="146px" height="113px" viewBox="0 0 146 113" version="1.1" xmlns="http://www.w3.org/2000/svg" xmlns:xlink="http://www.w3.org/1999/xlink">
    <!-- Generator: Sketch 63.1 (92452) - https://sketch.com -->
    <title>slice-146x113</title>
    <desc>Created with Sketch.</desc>
    <g id="Page-1" stroke="none" stroke-width="1" fill="none" fill-rule="evenodd">
        <g id="icon-Ending-Poverty-hands" transform="translate(31.000000, 0.000000)" fill-rule="nonzero">
            <path d="M33.7760143,77.3756047 L19.9139134,63.4129593 C19.2309884,62.7199602 18.2944125,62.3291811 17.3164344,62.3291811 C16.3384564,62.3291811 15.4018805,62.7199602 14.7189555,63.4129593 C13.2843996,64.8680753 13.2843996,67.1904014 14.7189555,68.6455174 L21.8646588,75.8430233 C22.7000717,76.6903765 22.7000717,78.0427631 21.8646588,78.8901163 C21.4669439,79.2936245 20.9215555,79.5211547 20.3520638,79.5211547 C19.782572,79.5211547 19.2371836,79.2936245 18.8394687,78.8901163 L7.87522728,70.189178 L7.10047945,42.2325581 C7.0828109,39.3499721 8.19758777,37.0174909 5.28571874,37 C2.37384971,37.0174909 0.017673749,39.3499721 -9.37664414e-05,42.2325581 L-9.37664414e-05,72.5797384 C-0.00194674028,73.9645444 0.545853127,75.2946581 1.52532117,76.2833605 L18.2094293,93.0549651 C19.0626723,93.9125876 20.0539937,94.623834 21.1428594,95.1596221 L21.1428594,112 L36.9996338,112 L36.9996338,85.8372093 L36.970541,85.8372093 C37.1583787,82.6969684 35.9982942,79.6241575 33.7760143,77.3756047 Z" id="Path" fill="#FFFFFF"></path>
            <path d="M80.7760143,77.3756047 L66.9139134,63.4129593 C66.2309884,62.7199602 65.2944125,62.3291811 64.3164344,62.3291811 C63.3384564,62.3291811 62.4018805,62.7199602 61.7189555,63.4129593 C60.2843996,64.8680753 60.2843996,67.1904014 61.7189555,68.6455174 L68.8646588,75.8430233 C69.7000717,76.6903765 69.7000717,78.0427631 68.8646588,78.8901163 C68.4669439,79.2936245 67.9215555,79.5211547 67.3520638,79.5211547 C66.782572,79.5211547 66.2371836,79.2936245 65.8394687,78.8901163 L54.8752273,70.189178 L54.1004794,42.2325581 C54.0828109,39.3499721 55.1975878,37.0174909 52.2857187,37 C49.3738497,37.0174909 47.0176737,39.3499721 46.9999062,42.2325581 L46.9999062,72.5797384 C46.9980533,73.9645444 47.5458531,75.2946581 48.5253212,76.2833605 L65.2094293,93.0549651 C66.0626723,93.9125876 67.0539937,94.623834 68.1428594,95.1596221 L68.1428594,112 L83.9996338,112 L83.9996338,85.8372093 L83.970541,85.8372093 C84.1583787,82.6969684 82.9982942,79.6241575 80.7760143,77.3756047 Z" id="Path" fill="#FFFFFF" transform="translate(65.499770, 74.500000) scale(-1, 1) translate(-65.499770, -74.500000) "></path>
            <g id="money-food" transform="translate(15.499770, 0.500000)">
                <path d="M52.4502373,27.6391837 L7.35090557,27.6391837 C6.7650569,27.6440766 6.29338131,28.0786735 6.29485714,28.6122122 L6.29485714,31.0334693 L48.5987792,31.0334693 C48.9124967,31.0314144 49.2140198,31.1439979 49.4358573,31.3460199 C49.6576949,31.5480419 49.7813213,31.8226316 49.7790647,32.1083265 L49.7790647,48.004898 L52.4502373,48.004898 C52.7303906,48.005114 52.9991378,47.9038603 53.1972362,47.723457 C53.3953346,47.5430536 53.5062857,47.2983121 53.5062857,47.0431833 L53.5062857,28.6122122 C53.5077615,28.0786735 53.036086,27.6440766 52.4502373,27.6391837 L52.4502373,27.6391837 Z" id="Path" fill="#FFFFFF"></path>
                <path d="M46.1553768,33.4579595 L1.05605167,33.4579595 C0.775898395,33.4577435 0.507151189,33.5589972 0.309052841,33.7394005 C0.110954492,33.9198039 3.42236009e-06,34.1645454 3.42236009e-06,34.4196741 L3.42236009e-06,52.8506449 C-0.00146564611,53.3841812 0.470205939,53.8187744 1.05605167,53.8236735 L46.1553768,53.8236735 C46.7412254,53.8187805 47.2129009,53.3841837 47.2114251,52.8506449 L47.2114251,34.4196741 C47.2114251,34.1645445 47.1004784,33.9198012 46.9023793,33.7393972 C46.7042803,33.5589932 46.4355311,33.4577405 46.1553768,33.4579595 Z M7.45444077,45.9036737 C6.08211738,45.9036737 4.96962947,44.8905581 4.96962947,43.6408167 C4.96962947,42.3910752 6.08211738,41.3779596 7.45444077,41.3779596 C8.82676416,41.3779596 9.93925208,42.3910752 9.93925208,43.6408167 C9.93521287,44.8890313 8.82508758,45.8999953 7.45444077,45.9036737 L7.45444077,45.9036737 Z M23.6057143,50.4293879 C19.4887441,50.4293879 16.1512803,47.390041 16.1512803,43.6408167 C16.1512803,39.8915923 19.4887441,36.8522455 23.6057143,36.8522455 C27.7226844,36.8522455 31.0601482,39.8915923 31.0601482,43.6408167 C31.056887,47.3888102 27.7213328,50.426418 23.6057143,50.4293879 L23.6057143,50.4293879 Z M39.7569877,45.9036737 C38.3846643,45.9036737 37.2721764,44.8905581 37.2721764,43.6408167 C37.2721764,42.3910752 38.3846643,41.3779596 39.7569877,41.3779596 C41.1293111,41.3779596 42.241799,42.3910752 42.241799,43.6408167 C42.2377598,44.8890313 41.1276345,45.8999953 39.7569877,45.9036737 L39.7569877,45.9036737 Z" id="Shape" fill="#FFFFFF"></path>
                <path d="M23.6057143,14.0296987 L20.4874228,13.2841956 C17.1436788,12.484783 13.7067238,14.2552895 12.8107606,17.2387367 L12.5897143,17.974889 L15.7079305,18.7204481 C17.3136635,19.1043373 19.0245459,18.9033584 20.4642005,18.1617249 C21.9038551,17.4200914 22.9543522,16.1985543 23.3845927,14.7658398 L23.6057143,14.0296987 Z" id="Path" fill="#F5F346"></path>
                <path d="M22.032,20.8829624 L25.1502915,21.6284557 C28.4940279,22.4278711 31.9309793,20.6573734 32.8269537,17.6739299 L33.048,16.9377763 L29.9297838,16.1922159 C28.3240507,15.8083148 26.6131631,16.0092844 25.1735007,16.7509133 C23.7338384,17.4925422 22.6833322,18.7140793 22.2530839,20.1467976 L22.032,20.8829624 Z" id="Path" fill="#F5F346"></path>
                <path d="M31.4742857,22.3389962 L34.592502,23.0845059 C36.1982256,23.4684225 37.9091101,23.2674607 39.348769,22.5258309 C40.788428,21.7842012 41.838928,20.5626561 42.2691642,19.1299297 L42.4902857,18.3937709 L39.3719943,17.6482611 C36.0282571,16.8488879 32.5913369,18.6193921 31.695332,21.6028373 L31.4742857,22.3389962 Z" id="Path" fill="#F5F346"></path>
                <path d="M20.1950027,10.8564602 L23.187221,11.637551 L23.3992815,10.8662213 C24.2590075,7.7406335 22.3549211,4.5279161 19.1463808,3.6904083 L16.1542347,2.90938776 L15.9421021,3.68070574 C15.5292418,5.18165888 15.7453728,6.7809049 16.542948,8.12662252 C17.3405231,9.47234014 18.6542081,10.4542933 20.1950027,10.8564602 L20.1950027,10.8564602 Z" id="Path" fill="#F5F346"></path>
                <path d="M31.2110043,12.3111499 L34.2031068,13.0922449 L34.4152852,12.3209462 C35.2750006,9.19533449 33.3709217,5.98259655 30.1624055,5.14509465 L27.1702188,4.36408163 L26.9581125,5.1352983 C26.5452397,6.6362724 26.7613644,8.23554629 27.5589399,9.58128553 C28.3565153,10.9270248 29.6702059,11.9089891 31.2110043,12.3111499 L31.2110043,12.3111499 Z" id="Path" fill="#F5F346"></path>
                <path d="M40.6547082,15.2206016 L43.6469205,16.0016327 L43.8590286,15.2303981 C44.2719009,13.7294248 44.0557827,12.1301523 43.2582181,10.7844078 C42.4606536,9.43866327 41.1469763,8.45668503 39.6061846,8.05450042 L36.6140445,7.27346939 L36.4018642,8.04469227 C35.5421366,11.1703078 37.4461938,14.3830618 40.6547082,15.2206016 Z" id="Path" fill="#F5F346"></path>
                <path d="M53.4392461,19.2560318 C53.5742784,18.8724934 53.5036034,18.4638337 53.2427699,18.1199601 C52.9819364,17.7760866 52.5523125,17.5251701 52.0484179,17.4224137 L45.0821598,16.0016327 L44.064,18.8938955 L51.0302581,20.3146765 C51.5341462,20.4174699 52.0710448,20.3636803 52.5228257,20.1651423 C52.9746066,19.9666044 53.3042566,19.6395839 53.4392461,19.2560318 L53.4392461,19.2560318 Z" id="Path" fill="#F5F346"></path>
                <path d="M5.31128115,13.1475475 C4.7180958,12.9975744 4.08517376,13.157591 3.65093065,13.5673206 C3.21668754,13.9770502 3.04709522,14.5742451 3.20603747,15.1339479 C3.36497972,15.6936506 3.82830944,16.1308289 4.42149479,16.280802 L8.84915099,17.4002661 C9.44276379,17.5514274 10.0767405,17.3919124 10.511767,16.981935 C10.9467935,16.5719575 11.1166135,15.9739589 10.957123,15.4136722 C10.7976326,14.8533855 10.3331228,14.4161448 9.73893735,14.2670001 L5.31128115,13.1475475 Z" id="Path" fill="#F5F346"></path>
                <path d="M7.56723042,3.18906746 L11.9980248,4.30876418 C12.5916371,4.45877918 13.2250137,4.29871462 13.6595678,3.88886526 C14.0941219,3.47901591 14.2638345,2.88164764 14.1047763,2.32178328 C13.9457182,1.76191893 13.4820541,1.32461522 12.8884418,1.17460022 L8.45764743,0.0549263381 C7.54073453,-0.17512643 6.59946419,0.338484475 6.35389471,1.20285407 C6.10832523,2.06722367 6.65120126,2.95590405 7.56723042,3.18906746 L7.56723042,3.18906746 Z" id="Path" fill="#F5F346"></path>
                <path d="M13.5585128,11.5870128 C14.482141,11.7986864 15.4303049,11.3261085 15.6776729,10.5307945 C15.9250409,9.73548047 15.378189,8.9177979 14.455451,8.70326221 L2.18163556,5.8700106 C1.25728001,5.65663454 0.307155315,6.12920628 0.0594726688,6.92552912 C-0.188209977,7.72185196 0.3603418,8.54037464 1.28469736,8.7537507 L13.5585128,11.5870128 Z" id="Path" fill="#F5F346"></path>
            </g>
        </g>
    </g>
</svg>